<svg width="267" height="243" viewBox="0 0 267 243" fill="none" xmlns="http://www.w3.org/2000/svg">
<g filter="url(#filter0_d_297_3)">
<path d="M146.1 233.678C153.02 231.816 158.49 229.301 162.932 226.46C162.932 226.507 162.885 226.553 162.838 226.6C163.446 226.181 163.961 225.762 164.569 225.342C165.41 224.737 166.299 224.178 167.093 223.526C167.795 222.967 168.403 222.362 169.01 221.757C170.46 220.406 171.769 218.962 172.891 217.519C173.265 217.053 173.686 216.587 174.014 216.122C174.575 215.33 174.995 214.492 175.463 213.7C175.79 213.141 176.118 212.582 176.398 212.024C176.819 211.232 177.146 210.394 177.473 209.602C177.707 209.043 177.941 208.438 178.128 207.879C178.409 207.087 178.642 206.296 178.876 205.457C179.017 204.898 179.157 204.34 179.297 203.734C179.484 202.943 179.624 202.151 179.765 201.359C179.858 200.8 179.905 200.288 179.952 199.729C180.045 198.938 180.139 198.192 180.185 197.447C180.185 196.982 180.185 196.609 180.185 196.143C180.185 194.607 180.185 193.116 180.092 191.719C180.092 191.347 180.092 190.974 179.998 190.648C179.952 189.996 179.858 189.391 179.765 188.832C179.718 188.413 179.671 187.994 179.578 187.575C179.484 187.016 179.391 186.55 179.297 186.084C179.204 185.665 179.157 185.293 179.063 184.92C178.97 184.501 178.876 184.128 178.783 183.756C178.689 183.383 178.596 183.104 178.549 182.778C178.455 182.499 178.409 182.219 178.315 181.986C178.222 181.707 178.175 181.474 178.081 181.288C178.035 181.148 177.988 181.008 177.941 180.915C177.848 180.682 177.801 180.543 177.801 180.543C215.253 189.344 218.479 178.261 228.813 156.466C229.654 154.65 230.543 152.787 231.525 150.878C236.948 140.074 241.484 135.184 245.692 131.831C248.077 129.922 250.321 128.478 252.565 126.755C252.846 126.569 253.08 126.336 253.36 126.149C253.688 125.917 253.968 125.637 254.295 125.358C254.623 125.078 254.95 124.752 255.277 124.426C255.558 124.147 255.838 123.868 256.119 123.588C256.493 123.216 256.867 122.796 257.241 122.377C257.522 122.098 257.755 121.772 258.036 121.493C258.457 120.98 258.878 120.421 259.298 119.816C259.532 119.537 259.719 119.257 259.953 118.931C260 118.838 260.047 118.791 260.093 118.745C260.701 117.86 261.309 116.882 261.917 115.811C268.042 105.147 247.422 96.9038 219.508 98.6269C216.703 98.8132 213.85 99.0926 210.952 99.4652C205.107 100.21 199.075 101.421 192.95 103.144C189.911 103.982 186.825 104.96 183.739 106.078C182.196 106.637 180.653 107.196 179.157 107.848C174.575 109.71 170.039 111.853 165.55 114.321C165.55 114.321 165.457 114.367 165.41 114.414C163.4 115.532 161.483 116.603 159.612 117.581C159.145 117.814 158.677 118.093 158.256 118.326C156.433 119.304 154.703 120.235 153.066 121.073C152.786 121.213 152.505 121.353 152.225 121.493C150.775 122.238 149.373 122.936 148.017 123.635C147.689 123.774 147.362 123.961 147.035 124.1C145.585 124.846 144.182 125.498 142.873 126.103C142.593 126.243 142.265 126.382 141.985 126.522C140.816 127.081 139.694 127.593 138.618 128.059C138.478 128.152 138.291 128.199 138.151 128.292C136.982 128.804 135.953 129.27 134.925 129.689C134.691 129.782 134.41 129.922 134.177 130.015C133.195 130.434 132.259 130.806 131.371 131.132C131.278 131.132 131.184 131.226 131.091 131.226C130.296 131.505 129.548 131.784 128.846 132.017C128.659 132.064 128.472 132.157 128.285 132.204C127.584 132.436 126.882 132.669 126.275 132.855C126.134 132.855 125.994 132.949 125.854 132.995C125.293 133.135 124.825 133.275 124.358 133.414C124.264 133.414 124.171 133.461 124.077 133.507C123.563 133.647 123.095 133.74 122.674 133.787C122.581 133.787 122.487 133.787 122.394 133.833C121.973 133.88 121.599 133.927 121.272 133.973C120.897 133.973 120.617 133.973 120.336 133.973C120.29 133.973 120.243 133.973 120.196 133.973C119.916 133.973 119.682 133.973 119.495 133.88C119.308 133.88 119.121 133.787 118.98 133.74C118.84 133.694 118.7 133.601 118.606 133.554C118.232 133.321 118.186 133.042 118.186 132.949C121.412 132.157 124.264 130.061 125.807 126.848C127.116 124.147 127.21 121.26 126.415 118.605C136 116.463 151.757 111.62 161.95 101.142C162.605 100.443 162.605 99.3255 161.95 98.6735C161.249 97.9749 160.127 98.0215 159.472 98.6735C149.747 108.686 133.943 113.343 124.872 115.299C123.796 113.715 122.3 112.411 120.477 111.527C118.232 110.456 115.754 110.176 113.463 110.595C109.348 102.585 102.475 86.7517 104.299 72.3152C104.439 71.3372 103.738 70.4989 102.756 70.3592C101.774 70.2195 100.932 70.9181 100.792 71.896C98.8749 87.1242 105.701 103.284 110.05 111.76C107.946 112.877 106.169 114.6 105.094 116.882C103.551 120.095 103.691 123.635 105.094 126.662C104.953 126.708 104.86 126.848 104.72 126.895C104.72 126.895 104.673 126.895 104.626 126.895C104.486 126.801 104.299 126.662 104.112 126.522C104.065 126.522 104.018 126.429 103.971 126.382C103.831 126.243 103.644 126.056 103.457 125.87C103.364 125.777 103.27 125.637 103.223 125.544C103.036 125.311 102.896 125.078 102.709 124.799C102.615 124.659 102.522 124.52 102.428 124.38C102.195 124.007 101.961 123.588 101.727 123.122C101.68 122.983 101.587 122.89 101.54 122.75C101.213 122.098 100.932 121.399 100.558 120.561C100.465 120.375 100.418 120.142 100.324 119.956C100.044 119.304 99.7633 118.559 99.4827 117.767C99.3892 117.441 99.249 117.068 99.1087 116.742C98.8282 115.951 98.5476 115.113 98.3138 114.181C98.1735 113.809 98.0801 113.389 97.9398 112.97C97.5658 111.76 97.1916 110.456 96.8176 109.012C96.8176 108.826 96.724 108.732 96.6773 108.546C96.2565 106.916 95.7889 105.1 95.3681 103.191C95.2746 102.678 95.1344 102.166 94.9941 101.654C94.6668 100.164 94.2927 98.6269 93.9654 96.9504C93.8252 96.2053 93.6381 95.4602 93.4978 94.6685C93.1705 92.992 92.7965 91.2224 92.4692 89.4061C92.3289 88.6145 92.1886 87.8694 92.0016 87.0311C91.4873 84.3301 90.973 81.5359 90.4587 78.4623C87.9338 63.4204 82.51 49.5892 75.8705 37.8072C73.6729 33.8953 71.335 30.2163 68.9036 26.7702C67.4074 24.628 65.8644 22.6255 64.2747 20.6696C63.3395 19.5054 62.4044 18.4343 61.4692 17.3632C47.3018 1.25012 32.7136 -5.12989 28.8795 4.60313C28.412 5.8605 27.9913 6.97817 27.664 8.09584C27.5704 8.46839 27.4769 8.79438 27.3834 9.16694C27.1964 9.86548 27.0093 10.564 26.869 11.216C26.7755 11.6351 26.7288 12.0077 26.6353 12.3802C26.5418 12.9391 26.4482 13.4513 26.4014 13.9636C26.3547 14.3827 26.3079 14.7553 26.2612 15.1744C26.2612 15.6401 26.2145 16.0592 26.1677 16.5249C26.1677 16.944 26.1677 17.3632 26.1677 17.7823C26.1677 18.1083 26.1677 18.4343 26.1677 18.7602C26.2145 21.601 26.495 24.2554 26.495 27.2825C26.495 32.638 25.5131 39.2042 20.4633 50.1946C19.575 52.1506 18.6398 54.0133 17.7982 55.8296C7.23106 77.4844 0.544881 86.938 30.8902 110.502C30.8902 110.502 30.7498 110.502 30.6095 110.595C30.6095 110.595 30.6096 110.595 30.5629 110.595C30.3758 110.688 30.0485 110.782 29.6745 110.921C29.6745 110.921 29.6744 110.921 29.5809 110.921C25.9338 112.365 15.4604 117.301 9.10141 127.64C3.95813 135.976 1.47997 147.851 7.60515 164.29C8.11947 165.64 8.63373 166.991 9.28833 168.388C9.89617 169.785 10.5976 171.089 11.299 172.346C11.299 172.346 11.299 172.346 11.299 172.393C12.0003 173.604 12.7485 174.675 13.4966 175.699C34.8178 203.501 84.1932 164.988 92.3757 158.282L76.6186 194.56C75.8705 196.283 76.6186 198.332 78.3486 199.17C80.0786 200.009 82.1359 199.31 83.0243 197.587L101.961 161.263C101.961 161.263 99.1554 240.85 141.564 234.656C141.611 234.656 141.658 234.656 141.704 234.656C143.107 234.424 144.557 234.144 146.053 233.725L146.1 233.678Z" fill="#0A6519"/>
</g>
<defs>
<filter id="filter0_d_297_3" x="0" y="0" width="267" height="243" filterUnits="userSpaceOnUse" color-interpolation-filters="sRGB">
<feFlood flood-opacity="0" result="BackgroundImageFix"/>
<feColorMatrix in="SourceAlpha" type="matrix" values="0 0 0 0 0 0 0 0 0 0 0 0 0 0 0 0 0 0 127 0" result="hardAlpha"/>
<feOffset dy="4"/>
<feGaussianBlur stdDeviation="2"/>
<feComposite in2="hardAlpha" operator="out"/>
<feColorMatrix type="matrix" values="0 0 0 0 0 0 0 0 0 0 0 0 0 0 0 0 0 0 0.25 0"/>
<feBlend mode="normal" in2="BackgroundImageFix" result="effect1_dropShadow_297_3"/>
<feBlend mode="normal" in="SourceGraphic" in2="effect1_dropShadow_297_3" result="shape"/>
</filter>
</defs>
</svg>
