<svg width="268" height="248" viewBox="0 0 268 248" fill="none" xmlns="http://www.w3.org/2000/svg">
<g opacity="0.4">
<path d="M174.793 71.2193C174.793 71.2193 201.329 90.6506 198.721 110.637C196.112 130.623 153.094 131.466 166.8 136.389C180.507 141.313 202.443 122.529 202.443 122.529C202.443 122.529 210.282 128.198 204.258 156.193C198.221 184.181 147.743 171.572 147.743 171.572C100.098 243.871 74.947 180.968 74.917 173.226C74.887 165.484 114.434 164.418 111.577 160.154C108.732 155.896 86.735 166.832 73.2411 164.33C59.7472 161.828 45.759 124.331 48.9461 114.145C52.1331 103.959 85.5223 131.527 85.3219 120.273C85.1216 109.019 41.0637 118.406 49.8939 79.7898C58.7242 41.1738 56.3051 45.6812 73.181 73.7168C90.0455 101.746 112.353 90.0915 97.8679 82.0016C44.2728 52.0595 81.2586 5.56327 81.2586 5.56327C145.23 28.9783 117.644 78.5804 126.096 77.8612C134.531 77.147 118.986 22.6645 129.456 32.4426C139.927 42.2207 156.01 30.8317 166.736 51.7905C177.456 72.7607 142.777 106.248 156.667 111.616C170.557 116.983 174.804 71.2256 174.804 71.2256L174.793 71.2193ZM96.5593 133.078C85.8205 130.564 77.076 134.211 78.4225 140.041C79.7689 145.871 101.528 145.054 101.528 145.054C108.982 142.071 107.304 135.581 96.5593 133.078ZM139.018 91.2169C130.125 100.605 129.336 105.44 130.06 109.691C130.06 109.691 142.084 105.358 144.338 96.8215C146.598 88.274 147.923 81.8354 139.018 91.2169ZM166.642 148.796C159.984 151.39 152.314 152.277 156.368 157.326C156.368 157.326 167.911 161.892 172.546 155.914C177.186 149.924 173.3 146.201 166.642 148.796Z" fill="#B7D331"/>
<path d="M197.44 247.659C197.44 247.659 132.489 180.11 86.9393 20.1044" stroke="#02604D" stroke-width="0.5" stroke-linecap="round" stroke-linejoin="round"/>
</g>
</svg>
