<svg width="1613" height="194" viewBox="0 0 1613 194" fill="none" xmlns="http://www.w3.org/2000/svg">
<path d="M359.882 0.021286H651.118C694.129 0.021286 729 43.3008 729 96.6925C729 150.084 694.129 193.364 651.118 193.364H359.882" fill="#AB7B64"/>
<path d="M359.882 193.344C402.896 193.344 437.765 150.063 437.765 96.6727C437.765 43.2826 402.896 0.00140381 359.882 0.00140381C316.869 0.00140381 282 43.2826 282 96.6727C282 150.063 316.869 193.344 359.882 193.344Z" fill="#FCD68B"/>
<path d="M359.883 152.617C334.508 152.617 313.862 127.531 313.862 96.6926C313.862 93.946 316.087 91.7259 318.828 91.7259C321.57 91.7259 323.795 93.946 323.795 96.6926C323.795 122.047 339.982 142.684 359.883 142.684C379.779 142.684 395.966 122.052 395.966 96.6926C395.966 71.3328 379.779 50.7012 359.883 50.7012C357.141 50.7012 354.916 48.4811 354.916 45.7346C354.916 42.988 357.141 40.7679 359.883 40.7679C385.258 40.7679 405.899 65.8545 405.899 96.6926C405.899 127.531 385.258 152.617 359.883 152.617Z" fill="#D4B26E"/>
<path d="M684.881 101.659H484.243C481.501 101.659 479.276 99.4391 479.276 96.6926C479.276 93.946 481.501 91.7259 484.243 91.7259H684.881C687.628 91.7259 689.848 93.946 689.848 96.6926C689.848 99.4391 687.628 101.659 684.881 101.659Z" fill="black"/>
<path d="M650.581 53.3236H451.954C449.212 53.3236 446.987 51.1035 446.987 48.3569C446.987 45.6104 449.212 43.3903 451.954 43.3903H650.581C653.328 43.3903 655.548 45.6104 655.548 48.3569C655.548 51.1035 653.328 53.3236 650.581 53.3236Z" fill="black"/>
<path d="M559.001 150H457.855C455.113 150 452.888 147.78 452.888 145.033C452.888 142.287 455.113 140.066 457.855 140.066H559.006C561.753 140.066 563.973 142.287 563.973 145.033C563.973 147.78 561.748 150 559.001 150Z" fill="black"/>
<path d="M654.882 0.021286H946.118C989.129 0.021286 1024 43.3008 1024 96.6925C1024 150.084 989.129 193.364 946.118 193.364H654.882" fill="#AB7B64"/>
<path d="M987.881 101.659H787.243C784.501 101.659 782.276 99.4391 782.276 96.6926C782.276 93.946 784.501 91.7259 787.243 91.7259H987.881C990.628 91.7259 992.848 93.946 992.848 96.6926C992.848 99.4391 990.628 101.659 987.881 101.659Z" fill="black"/>
<path d="M953.581 53.3236H754.954C752.212 53.3236 749.987 51.1035 749.987 48.3569C749.987 45.6104 752.212 43.3903 754.954 43.3903H953.581C956.328 43.3903 958.548 45.6104 958.548 48.3569C958.548 51.1035 956.328 53.3236 953.581 53.3236Z" fill="black"/>
<path d="M862.001 150H760.855C758.113 150 755.888 147.78 755.888 145.033C755.888 142.287 758.113 140.066 760.855 140.066H862.006C864.753 140.066 866.973 142.287 866.973 145.033C866.973 147.78 864.748 150 862.001 150Z" fill="black"/>
<path d="M972.325 150H926.334C923.587 150 921.367 147.78 921.367 145.033C921.367 142.287 923.587 140.066 926.334 140.066H972.325C975.072 140.066 977.292 142.287 977.292 145.033C977.292 147.78 975.072 150 972.325 150Z" fill="black"/>
<path d="M951.882 0.021286H1243.12C1286.13 0.021286 1321 43.3008 1321 96.6925C1321 150.084 1286.13 193.364 1243.12 193.364H951.882" fill="#AB7B64"/>
<path d="M1300.88 101.659H1100.24C1097.5 101.659 1095.28 99.4391 1095.28 96.6926C1095.28 93.946 1097.5 91.7259 1100.24 91.7259H1300.88C1303.63 91.7259 1305.85 93.946 1305.85 96.6926C1305.85 99.4391 1303.63 101.659 1300.88 101.659Z" fill="black"/>
<path d="M1266.58 53.3236H1067.95C1065.21 53.3236 1062.99 51.1035 1062.99 48.3569C1062.99 45.6104 1065.21 43.3903 1067.95 43.3903H1266.58C1269.33 43.3903 1271.55 45.6104 1271.55 48.3569C1271.55 51.1035 1269.33 53.3236 1266.58 53.3236Z" fill="black"/>
<path d="M1175 150H1073.85C1071.11 150 1068.89 147.78 1068.89 145.033C1068.89 142.287 1071.11 140.066 1073.85 140.066H1175.01C1177.75 140.066 1179.97 142.287 1179.97 145.033C1179.97 147.78 1177.75 150 1175 150Z" fill="black"/>
<path d="M1243.88 0.021286H1535.12C1578.13 0.021286 1613 43.3008 1613 96.6925C1613 150.084 1578.13 193.364 1535.12 193.364H1243.88" fill="#AB7B64"/>
<path d="M1568.88 101.659H1368.24C1365.5 101.659 1363.28 99.4391 1363.28 96.6926C1363.28 93.946 1365.5 91.7259 1368.24 91.7259H1568.88C1571.63 91.7259 1573.85 93.946 1573.85 96.6926C1573.85 99.4391 1571.63 101.659 1568.88 101.659Z" fill="black"/>
<path d="M1534.58 53.3236H1335.95C1333.21 53.3236 1330.99 51.1035 1330.99 48.3569C1330.99 45.6104 1333.21 43.3903 1335.95 43.3903H1534.58C1537.33 43.3903 1539.55 45.6104 1539.55 48.3569C1539.55 51.1035 1537.33 53.3236 1534.58 53.3236Z" fill="black"/>
<path d="M1443 150H1341.85C1339.11 150 1336.89 147.78 1336.89 145.033C1336.89 142.287 1339.11 140.066 1341.85 140.066H1443.01C1445.75 140.066 1447.97 142.287 1447.97 145.033C1447.97 147.78 1445.75 150 1443 150Z" fill="black"/>
<path d="M1553.33 150H1507.33C1504.59 150 1502.37 147.78 1502.37 145.033C1502.37 142.287 1504.59 140.066 1507.33 140.066H1553.33C1556.07 140.066 1558.29 142.287 1558.29 145.033C1558.29 147.78 1556.07 150 1553.33 150Z" fill="black"/>
<path d="M77.8823 0.0198822H369.118C412.129 0.0198822 447 43.2994 447 96.6911C447 150.083 412.129 193.362 369.118 193.362H77.8823" fill="#AB7B64"/>
<path d="M77.8823 193.343C120.896 193.343 155.765 150.061 155.765 96.6713C155.765 43.2812 120.896 0 77.8823 0C34.8691 0 0 43.2812 0 96.6713C0 150.061 34.8691 193.343 77.8823 193.343Z" fill="#FCD68B"/>
<path d="M402.881 101.658H202.243C199.501 101.658 197.276 99.4377 197.276 96.6912C197.276 93.9446 199.501 91.7245 202.243 91.7245H402.881C405.628 91.7245 407.848 93.9446 407.848 96.6912C407.848 99.4377 405.628 101.658 402.881 101.658Z" fill="black"/>
<path d="M1508.02 53H228.982C211.328 53 197 50.765 197 48C197 45.235 211.328 43 228.982 43H1508.02C1525.7 43 1540 45.235 1540 48C1540 50.765 1525.7 53 1508.02 53Z" fill="black"/>
<path d="M277.001 149.998H175.855C173.113 149.998 170.888 147.778 170.888 145.032C170.888 142.285 173.113 140.065 175.855 140.065H277.006C279.753 140.065 281.973 142.285 281.973 145.032C281.973 147.778 279.748 149.998 277.001 149.998Z" fill="black"/>
<path d="M387.325 149.998H341.334C338.587 149.998 336.367 147.778 336.367 145.032C336.367 142.285 338.587 140.065 341.334 140.065H387.325C390.072 140.065 392.292 142.285 392.292 145.032C392.292 147.778 390.072 149.998 387.325 149.998Z" fill="black"/>
<path d="M77.8897 150.046C53.1366 150.046 33 125.589 33 95.523C33 92.7897 35.2143 90.5803 37.9427 90.5803C40.6711 90.5803 42.8854 92.7897 42.8854 95.523C42.8854 120.133 58.5884 140.161 77.8897 140.161C97.191 140.161 112.894 120.133 112.894 95.523C112.894 70.9133 97.191 50.8854 77.8897 50.8854C75.1613 50.8854 72.947 48.676 72.947 45.9427C72.947 43.2094 75.1613 41 77.8897 41C102.643 41 122.779 65.4565 122.779 95.523C122.779 125.589 102.638 150.046 77.8897 150.046Z" fill="black"/>
<path d="M224.694 52.8854H179.943C177.209 52.8854 175 50.676 175 47.9427C175 45.2094 177.209 43 179.943 43H224.694C227.427 43 229.637 45.2094 229.637 47.9427C229.637 50.676 227.427 52.8854 224.694 52.8854Z" fill="black"/>
<path d="M1250.69 101.885H1205.94C1203.21 101.885 1201 99.676 1201 96.9427C1201 94.2094 1203.21 92 1205.94 92H1250.69C1253.43 92 1255.64 94.2094 1255.64 96.9427C1255.64 99.676 1253.43 101.885 1250.69 101.885Z" fill="black"/>
<path d="M953.694 101.885H908.943C906.209 101.885 904 99.676 904 96.9427C904 94.2094 906.209 92 908.943 92H953.694C956.427 92 958.637 94.2094 958.637 96.9427C958.637 99.676 956.427 101.885 953.694 101.885Z" fill="black"/>
<path d="M970.694 149.885H925.943C923.209 149.885 921 147.676 921 144.943C921 142.209 923.209 140 925.943 140H970.694C973.427 140 975.637 142.209 975.637 144.943C975.637 147.676 973.427 149.885 970.694 149.885Z" fill="black"/>
</svg>
