<svg width="841" height="375" viewBox="0 0 841 375" fill="none" xmlns="http://www.w3.org/2000/svg">
<path d="M152.622 9.34448H688.385C767.504 9.34448 831.654 88.9684 831.654 187.188C831.654 285.407 767.504 365.031 688.376 365.031H152.622" fill="#AB7B64"/>
<path d="M152.623 365.068C231.753 365.068 295.901 285.445 295.901 187.225C295.901 89.0049 231.753 9.38177 152.623 9.38177C73.4926 9.38177 9.34473 89.0049 9.34473 187.225C9.34473 285.445 73.4926 365.068 152.623 365.068Z" fill="#FCD68B"/>
<path d="M152.623 374.375C68.4667 374.375 0 290.406 0 187.188C0 83.9691 68.4667 0 152.623 0C236.779 0 305.245 83.9691 305.245 187.188C305.245 290.406 236.769 374.375 152.623 374.375ZM152.623 18.6889C78.7736 18.6889 18.6889 94.2853 18.6889 187.188C18.6889 280.099 78.7736 355.686 152.623 355.686C226.472 355.686 286.556 280.099 286.556 187.188C286.547 94.2853 226.462 18.6889 152.623 18.6889Z" fill="black"/>
<path d="M152.623 290.266C105.826 290.266 67.7568 244.03 67.7568 187.188C67.7568 182.02 71.9431 177.843 77.1013 177.843C82.2594 177.843 86.4457 182.02 86.4457 187.188C86.4457 233.714 116.133 271.577 152.623 271.577C189.113 271.577 218.8 233.714 218.8 187.188C218.8 140.662 189.113 102.798 152.623 102.798C147.465 102.798 143.279 98.6213 143.279 93.4538C143.279 88.2863 147.465 84.1094 152.623 84.1094C199.42 84.1094 237.489 130.346 237.489 187.188C237.489 244.03 199.411 290.266 152.623 290.266Z" fill="black"/>
<path d="M688.377 374.375H152.624C147.466 374.375 143.279 370.198 143.279 365.031C143.279 359.863 147.466 355.686 152.624 355.686H688.377C762.226 355.686 822.311 280.099 822.311 187.188C822.311 94.2853 762.226 18.6889 688.377 18.6889H152.624C147.466 18.6889 143.279 14.5026 143.279 9.34443C143.279 4.18631 147.466 0 152.624 0H688.377C772.533 0 841 83.9691 841 187.188C841 290.406 772.533 374.375 688.377 374.375Z" fill="black"/>
<path d="M750.489 196.532H381.383C376.225 196.532 372.039 192.355 372.039 187.188C372.039 182.02 376.225 177.843 381.383 177.843H750.489C755.656 177.843 759.833 182.02 759.833 187.188C759.833 192.355 755.656 196.532 750.489 196.532Z" fill="black"/>
<path d="M687.395 107.62H284.612C279.454 107.62 275.268 103.443 275.268 98.2755C275.268 93.1081 279.454 88.9311 284.612 88.9311H687.386C692.553 88.9311 696.73 93.1081 696.73 98.2755C696.73 103.443 692.553 107.62 687.395 107.62Z" fill="black"/>
<path d="M518.925 285.454H332.849C327.691 285.454 323.505 281.277 323.505 276.109C323.505 270.942 327.691 266.765 332.849 266.765H518.925C524.092 266.765 528.269 270.942 528.269 276.109C528.269 281.277 524.092 285.454 518.925 285.454Z" fill="black"/>
<path d="M721.875 285.454H637.271C632.103 285.454 627.926 281.277 627.926 276.109C627.926 270.942 632.103 266.765 637.271 266.765H721.875C727.043 266.765 731.22 270.942 731.22 276.109C731.22 281.277 727.043 285.454 721.875 285.454Z" fill="black"/>
</svg>
