<svg width="1378" height="375" viewBox="0 0 1378 375" fill="none" xmlns="http://www.w3.org/2000/svg">
<path d="M152.622 9.34448H688.385C767.504 9.34448 831.654 88.9684 831.654 187.188C831.654 285.407 767.504 365.031 688.376 365.031H152.622" fill="#AB7B64"/>
<path d="M152.623 365.068C231.753 365.068 295.901 285.445 295.901 187.225C295.901 89.005 231.753 9.38184 152.623 9.38184C73.4926 9.38184 9.34473 89.005 9.34473 187.225C9.34473 285.445 73.4926 365.068 152.623 365.068Z" fill="#FCD68B"/>
<path d="M152.623 374.375C68.4667 374.375 0 290.406 0 187.188C0 83.9691 68.4667 0 152.623 0C236.779 0 305.245 83.9691 305.245 187.188C305.245 290.406 236.769 374.375 152.623 374.375ZM152.623 18.6889C78.7736 18.6889 18.6889 94.2853 18.6889 187.188C18.6889 280.099 78.7736 355.686 152.623 355.686C226.472 355.686 286.556 280.099 286.556 187.188C286.547 94.2853 226.462 18.6889 152.623 18.6889Z" fill="black"/>
<path d="M152.623 290.266C105.826 290.266 67.7568 244.03 67.7568 187.188C67.7568 182.02 71.9431 177.843 77.1013 177.843C82.2594 177.843 86.4457 182.02 86.4457 187.188C86.4457 233.714 116.133 271.577 152.623 271.577C189.113 271.577 218.8 233.714 218.8 187.188C218.8 140.662 189.113 102.798 152.623 102.798C147.465 102.798 143.279 98.6213 143.279 93.4538C143.279 88.2863 147.465 84.1094 152.623 84.1094C199.42 84.1094 237.489 130.346 237.489 187.188C237.489 244.03 199.411 290.266 152.623 290.266Z" fill="black"/>
<path d="M688.377 374.375H152.624C147.466 374.375 143.279 370.198 143.279 365.031C143.279 359.863 147.466 355.686 152.624 355.686H688.377C762.226 355.686 822.311 280.099 822.311 187.188C822.311 94.2853 762.226 18.6889 688.377 18.6889H152.624C147.466 18.6889 143.279 14.5026 143.279 9.34443C143.279 4.18631 147.466 0 152.624 0H688.377C772.533 0 841 83.9691 841 187.188C841 290.406 772.533 374.375 688.377 374.375Z" fill="black"/>
<path d="M750.489 196.532H381.383C376.225 196.532 372.039 192.355 372.039 187.188C372.039 182.02 376.225 177.843 381.383 177.843H750.489C755.656 177.843 759.833 182.02 759.833 187.188C759.833 192.355 755.656 196.532 750.489 196.532Z" fill="black"/>
<path d="M687.395 107.62H284.612C279.454 107.62 275.268 103.443 275.268 98.2756C275.268 93.1081 279.454 88.9312 284.612 88.9312H687.386C692.553 88.9312 696.73 93.1081 696.73 98.2756C696.73 103.443 692.553 107.62 687.395 107.62Z" fill="black"/>
<path d="M518.925 285.454H332.849C327.691 285.454 323.505 281.277 323.505 276.109C323.505 270.942 327.691 266.765 332.849 266.765H518.925C524.092 266.765 528.269 270.942 528.269 276.109C528.269 281.277 524.092 285.454 518.925 285.454Z" fill="black"/>
<path d="M721.875 285.454H637.271C632.103 285.454 627.926 281.277 627.926 276.109C627.926 270.942 632.103 266.765 637.271 266.765H721.875C727.043 266.765 731.22 270.942 731.22 276.109C731.22 281.277 727.043 285.454 721.875 285.454Z" fill="black"/>
<path d="M689.622 9.34448H1225.38C1304.5 9.34448 1368.65 88.9684 1368.65 187.188C1368.65 285.407 1304.5 365.031 1225.38 365.031H689.622" fill="#AB7B64"/>
<path d="M1225.38 374.375H689.624C684.466 374.375 680.279 370.198 680.279 365.031C680.279 359.863 684.466 355.686 689.624 355.686H1225.38C1299.23 355.686 1359.31 280.099 1359.31 187.188C1359.31 94.2853 1299.23 18.6889 1225.38 18.6889H689.624C684.466 18.6889 680.279 14.5026 680.279 9.34443C680.279 4.18631 684.466 0 689.624 0H1225.38C1309.53 0 1378 83.9691 1378 187.188C1378 290.406 1309.53 374.375 1225.38 374.375Z" fill="black"/>
<path d="M1287.49 196.532H918.383C913.225 196.532 909.039 192.355 909.039 187.188C909.039 182.02 913.225 177.843 918.383 177.843H1287.49C1292.66 177.843 1296.83 182.02 1296.83 187.188C1296.83 192.355 1292.66 196.532 1287.49 196.532Z" fill="black"/>
<path d="M1062.13 107.689H659.344C654.186 107.689 650 103.512 650 98.3444C650 93.177 654.186 89 659.344 89H1062.12C1067.28 89 1071.46 93.177 1071.46 98.3444C1071.46 103.512 1067.28 107.689 1062.13 107.689Z" fill="black"/>
<path d="M1055.93 285.454H869.849C864.691 285.454 860.505 281.277 860.505 276.109C860.505 270.942 864.691 266.765 869.849 266.765H1055.93C1061.09 266.765 1065.27 270.942 1065.27 276.109C1065.27 281.277 1061.09 285.454 1055.93 285.454Z" fill="black"/>
<path d="M1258.87 285.454H1174.27C1169.1 285.454 1164.93 281.277 1164.93 276.109C1164.93 270.942 1169.1 266.765 1174.27 266.765H1258.87C1264.04 266.765 1268.22 270.942 1268.22 276.109C1268.22 281.277 1264.04 285.454 1258.87 285.454Z" fill="black"/>
<path d="M721.949 285.689H637.344C632.177 285.689 628 281.512 628 276.344C628 271.177 632.177 267 637.344 267H721.949C727.116 267 731.293 271.177 731.293 276.344C731.293 281.512 727.116 285.689 721.949 285.689Z" fill="black"/>
<path d="M750.949 196.689H666.344C661.177 196.689 657 192.512 657 187.344C657 182.177 661.177 178 666.344 178H750.949C756.116 178 760.293 182.177 760.293 187.344C760.293 192.512 756.116 196.689 750.949 196.689Z" fill="black"/>
</svg>
