<svg width="800" height="800" viewBox="0 0 800 800" fill="none" xmlns="http://www.w3.org/2000/svg">
<path d="M600 600C710.457 489.543 710.457 310.457 600 200C489.543 89.5431 310.457 89.5431 200 200C89.543 310.457 89.543 489.543 200 600C310.457 710.457 489.543 710.457 600 600Z" fill="#55B76B"/>
<path d="M494.061 369.547C494.061 369.547 506.488 375.031 509.69 381.245C512.891 387.482 532.944 374.795 537.181 387.058C541.417 399.321 551.75 386.799 554.339 405.37C556.905 423.94 542.217 431.19 558.999 441.923C575.781 452.655 598.847 476.922 604.331 499C609.815 521.077 631.069 570.505 615.7 573.4C600.33 576.271 603.296 556.053 590.986 549.51C578.653 542.967 583.642 535.882 576.181 523.313C568.72 510.744 536.922 522.325 526.424 519.194C515.927 516.064 501.216 529.244 473.819 522.348C446.422 515.475 444.045 500.694 426.746 495.304C409.469 489.914 407.728 479.511 435.595 458.398C463.463 437.286 450.141 400.992 470.783 387.835C491.425 374.678 473.537 375.69 494.061 369.523V369.547Z" fill="#8BD2A0"/>
<path d="M306.589 183.77C306.589 183.77 321.582 173.32 322.618 185.277C323.653 197.233 309.978 222.371 321.041 225.03C332.103 227.69 332.856 236.917 331.373 247.037C329.891 257.135 325.701 255.675 311.932 247.367C298.163 239.058 297.598 268.126 289.76 247.979C281.946 227.831 288.207 212.791 289.384 205.895C290.56 198.999 306.542 183.77 306.542 183.77H306.589Z" fill="#8BD2A0"/>
<path d="M477.044 363.639C477.044 363.639 456.849 377.29 452.566 387.011C448.282 396.732 438.938 402.616 436.937 398.709C434.937 394.802 431.453 395.837 435.619 387.435C439.785 379.032 438.867 377.949 443.269 370.582C447.67 363.215 447.929 360.556 458.167 359.473C468.406 358.414 475.702 356.06 476.385 359.826L477.044 363.592V363.639Z" fill="#8BD2A0"/>
<path d="M486.765 328.405C486.765 328.405 479.868 337.207 476.573 336.242C473.278 335.254 467.394 333.347 467.676 337.443C467.959 341.515 474.055 345.139 476.667 346.057C479.28 346.975 488.695 354.625 489.942 348.646C491.166 342.691 500.934 339.538 498.015 334.548C495.097 329.558 488.907 327.275 486.765 328.428V328.405Z" fill="#8BD2A0"/>
<path d="M357.594 519.831C357.594 519.831 346.272 528.68 345.59 539.107C344.907 549.534 333.963 554.453 343.307 566.387C352.675 578.32 360.183 601.127 364.278 593.572C368.397 586.016 360.324 581.309 362.866 566.245C365.408 551.182 362.348 553.724 366.397 543.626C370.468 533.529 372.987 524.703 368.091 522.537C363.196 520.372 357.57 519.854 357.57 519.854L357.594 519.831Z" fill="#8BD2A0"/>
<path d="M381.413 546.733C379.247 554.735 379.765 573.494 383.837 575.306C387.909 577.095 402.384 577.048 407.35 572.411C412.317 567.775 422.814 558.548 411.893 554.147C400.972 549.722 391.416 551.934 387.556 544.779C383.696 537.624 381.413 546.756 381.413 546.756V546.733Z" fill="#8BD2A0"/>
<path d="M576.675 396.544C574.109 390.048 564.224 393.814 566.389 400.451C568.178 405.959 569.355 413.161 567.26 420.481C562.859 435.827 588.749 451.314 594.516 458.258C600.282 465.201 611.156 448.984 598.07 438.652C584.983 428.319 579.358 430.743 579.452 414.008C579.476 407.489 578.534 401.275 576.675 396.568V396.544Z" fill="#8BD2A0"/>
<path d="M572.626 381.222C570.131 381.763 567.565 381.881 565.047 381.434C561.705 380.845 557.468 379.739 554.291 377.762C548.171 373.949 564.247 371.007 570.555 366.135C576.886 361.262 587.76 361.874 590.726 371.266C593.174 378.986 578.322 380.021 572.626 381.245V381.222Z" fill="#8BD2A0"/>
<path d="M238.073 381.528C238.073 381.528 247.158 399.934 256.126 400.946C265.094 401.958 266.153 406.548 270.531 403.747C274.908 400.946 283.146 397.721 272.814 386.871C262.481 376.02 271.284 365.193 254.973 369.548C238.662 373.902 240.027 369.477 238.097 381.528H238.073Z" fill="#8BD2A0"/>
<path d="M574.39 588.251C574.39 588.251 577.803 578.083 573.943 571.328C570.083 564.572 574.884 556.994 564.152 553.416C553.419 549.838 539.391 538.705 539.932 545.107C540.474 551.486 547.44 551.133 552.03 561.56C556.62 571.987 557.491 569.139 559.115 577.094C560.739 585.05 562.787 591.593 566.717 590.91C570.648 590.251 574.367 588.274 574.367 588.274L574.39 588.251Z" fill="#8BD2A0"/>
<path d="M117.423 387.882C129.544 375.172 145.667 361.944 157.953 366.11C179.89 373.548 205.969 365.757 216.066 373.171C226.163 380.585 214.324 403.204 204.886 412.031C195.424 420.857 195.118 429.989 209.24 423.211C223.362 416.456 227.764 403.911 240.285 408.335C252.807 412.737 254.808 425.87 264.152 424.058C273.496 422.246 288.748 420.433 291.078 424.435C293.408 428.436 298.892 444.582 265.94 445.265C232.989 445.947 231.294 458.187 233.413 464.33C235.531 470.449 230.282 474.827 221.315 478.287C212.371 481.771 211.335 504.319 197.307 510.015C183.302 515.711 191.305 533.716 209.428 518.7C227.552 503.683 254.384 499.188 255.984 488.008C257.561 476.828 251.865 462.823 273.472 456.751C295.079 450.678 307.624 443.241 321.982 451.055C336.339 458.869 348.273 469.696 353.945 489.632C359.617 509.568 336.787 505.825 331.773 530.68C326.736 555.559 312.002 546.073 329.137 570.34C346.272 594.583 365.007 601.738 363.101 627.982C361.171 654.225 385.861 655.449 353.356 668.583C320.852 681.716 320.828 653.143 295.479 647.517C270.13 641.915 286.465 634.266 268.247 621.791C252.03 610.682 247.182 623.651 224.021 621.533C208.981 609.576 194.953 595.901 182.22 580.508C135.664 524.302 114.504 455.456 117.423 387.882Z" fill="#8BD2A0"/>
<path d="M239.486 197.986C255.632 192.478 256.291 202.787 254.291 218.251C252.313 233.691 255.773 248.59 276.345 259.135C296.916 269.679 296.586 284.743 300.446 295.358C304.306 305.973 304.777 312.469 277.216 295.876C249.654 279.282 254.196 288.32 232.025 294.887C209.853 301.43 197.59 305.691 193.636 290.203C189.682 274.74 195.331 272.033 180.573 268.502C168.475 265.607 158.566 274.104 151.529 264.76C165.839 238.446 184.574 214.038 207.617 192.69C218.915 197.091 231.742 200.622 239.486 197.986Z" fill="#8BD2A0"/>
<path d="M317.511 129.376C316.829 135.708 313.863 142.322 306.19 147.617C299.152 152.466 294.869 157.95 291.832 163.199C285.689 173.837 284.701 183.535 276.228 185.253C263.588 187.842 256.715 174.802 234.355 177.556C230.801 178.003 227.742 178.003 225.058 177.745C253.42 155.408 284.795 139.356 317.488 129.4L317.511 129.376Z" fill="#8BD2A0"/>
<path d="M367.29 134.46C351.897 149.194 359.052 159.033 346.507 166.47C333.939 173.932 313.65 166.094 321.747 154.443C329.843 142.792 352.533 130.906 344.671 122.621C344.671 122.621 344.648 122.574 344.624 122.551C355.028 120.479 365.525 119.02 376.046 118.126C375.058 123.539 372.61 129.329 367.29 134.413V134.46Z" fill="#8BD2A0"/>
<path d="M352.133 232.798C370.68 236.164 392.192 259.724 402.243 250.427C412.269 241.13 396.17 234.751 397.771 217.664C399.371 200.552 358.135 209.096 345.001 211.097C331.867 213.097 321.111 207.237 342.247 188.737C363.383 170.237 360.983 161.387 383.86 147.335C395.017 140.51 398.477 128.082 399.112 117.138C424.862 117.067 450.564 120.527 475.442 127.376C478.667 134.155 483.233 142.322 489.329 149.642C502.886 166 503.734 180.099 519.527 195.61C535.32 211.097 569.213 263.89 558.692 266.667C548.195 269.468 540.028 235.811 526.4 237.223C512.795 238.635 560.222 290.557 559.869 300.207C558.269 342.503 516.279 351.118 514.584 363.357C512.89 375.596 491.824 370.394 507.052 345.94C522.281 321.485 493.801 326.357 510.842 311.246C527.883 296.136 499.45 283.214 492.53 293.9C485.61 304.562 466.263 297.901 471.394 312.4C476.502 326.898 475.325 333.795 456.519 315.859C437.713 297.924 441.926 322.05 419.801 304.868C397.677 287.709 397.7 316.283 381.742 325.557C365.784 334.854 356.864 320.52 373.551 303.761C390.215 286.98 380.518 281.237 371.927 292.275C363.336 303.338 353.168 325.557 348.367 301.926" fill="#8BD2A0"/>
<path d="M383.861 147.336C395.018 140.51 398.478 128.083 399.113 117.138" stroke="white" stroke-width="0.38" stroke-miterlimit="10" stroke-linecap="round"/>
<path d="M402.243 250.426C412.269 241.129 396.17 234.751 397.771 217.663C399.371 200.552 358.135 209.096 345.001 211.096C331.867 213.097 321.111 207.236 342.247 188.736" stroke="white" stroke-width="0.38" stroke-miterlimit="10" stroke-linecap="round"/>
<path d="M456.495 315.905C437.689 297.97 441.902 322.096 419.777 304.914C397.653 287.755 397.676 316.329 381.718 325.603C365.76 334.9 356.84 320.566 373.527 303.808C390.191 287.026 380.494 281.283 371.903 292.322C363.312 303.384 353.144 325.603 348.343 301.972" stroke="white" stroke-width="0.38" stroke-miterlimit="10" stroke-linecap="round"/>
<path d="M514.584 363.404C512.889 375.644 491.824 370.442 507.052 345.987C522.28 321.532 493.801 326.404 510.842 311.294C527.882 296.183 499.45 283.261 492.53 293.947C485.61 304.609 466.263 297.948 471.394 312.447" stroke="white" stroke-width="0.38" stroke-miterlimit="10" stroke-linecap="round"/>
<path d="M526.4 237.269C512.796 238.681 560.223 290.604 559.87 300.254" stroke="white" stroke-width="0.38" stroke-miterlimit="10" stroke-linecap="round"/>
<path d="M489.331 149.688C502.888 166.046 503.736 180.145 519.529 195.656C535.322 211.143 569.215 263.936 558.694 266.713" stroke="white" stroke-width="0.38" stroke-miterlimit="10" stroke-linecap="round"/>
<path d="M306.589 183.77C306.589 183.77 321.582 173.32 322.618 185.277C323.653 197.233 309.978 222.371 321.041 225.03C332.103 227.69 332.856 236.917 331.373 247.037C329.891 257.135 325.701 255.675 311.932 247.367C298.163 239.058 297.598 268.126 289.76 247.979C281.946 227.831 288.207 212.791 289.384 205.895C290.56 198.999 306.542 183.77 306.542 183.77H306.589Z" stroke="white" stroke-width="0.38" stroke-miterlimit="10" stroke-linecap="round"/>
<path d="M232.024 294.863C209.852 301.407 197.589 305.667 193.635 290.18C189.681 274.716 195.33 272.009 180.572 268.479" stroke="white" stroke-width="0.38" stroke-miterlimit="10" stroke-linecap="round"/>
<path d="M276.345 259.112C296.916 269.657 296.586 284.72 300.446 295.335C304.307 305.95 304.777 312.447 277.216 295.853" stroke="white" stroke-width="0.38" stroke-miterlimit="10" stroke-linecap="round"/>
<path d="M207.616 192.667C218.913 197.069 231.741 200.599 239.485 197.963C255.631 192.456 256.29 202.765 254.289 218.229" stroke="white" stroke-width="0.38" stroke-miterlimit="10" stroke-linecap="round"/>
<path d="M295.573 157.62C285.828 170.236 286.205 183.205 276.273 185.253C263.633 187.842 256.76 174.802 234.4 177.556" stroke="white" stroke-width="0.38" stroke-miterlimit="10" stroke-linecap="round"/>
<path d="M317.511 129.376C316.828 135.708 313.862 142.322 306.189 147.617" stroke="white" stroke-width="0.38" stroke-miterlimit="10" stroke-linecap="round"/>
<path d="M321.746 154.467C329.843 142.816 352.532 130.93 344.671 122.645C344.671 122.645 344.647 122.598 344.624 122.575" stroke="white" stroke-width="0.38" stroke-miterlimit="10" stroke-linecap="round"/>
<path d="M367.292 134.461C351.899 149.195 359.054 159.033 346.509 166.471" stroke="white" stroke-width="0.38" stroke-miterlimit="10" stroke-linecap="round"/>
<path d="M260.48 617.884C249.724 614.801 243.039 623.251 224.021 621.509" stroke="white" stroke-width="0.38" stroke-miterlimit="10" stroke-linecap="round"/>
<path d="M255.985 487.985C257.562 476.805 251.866 462.8 273.473 456.728C295.08 450.655 307.625 443.218 321.983 451.032" stroke="white" stroke-width="0.38" stroke-miterlimit="10" stroke-linecap="round"/>
<path d="M197.308 509.968C183.304 515.664 191.306 533.669 209.429 518.653" stroke="white" stroke-width="0.38" stroke-miterlimit="10" stroke-linecap="round"/>
<path d="M264.129 424.034C273.473 422.222 288.725 420.409 291.055 424.411C293.385 428.412 298.869 444.558 265.918 445.241C232.966 445.923 231.271 458.163 233.39 464.306" stroke="white" stroke-width="0.38" stroke-miterlimit="10" stroke-linecap="round"/>
<path d="M216.067 373.171C226.164 380.585 214.325 403.204 204.887 412.031C195.425 420.857 195.119 429.989 209.241 423.211C223.363 416.455 227.765 403.91 240.286 408.335" stroke="white" stroke-width="0.38" stroke-miterlimit="10" stroke-linecap="round"/>
<path d="M117.424 387.882C129.546 375.172 145.669 361.944 157.955 366.11" stroke="white" stroke-width="0.38" stroke-miterlimit="10" stroke-linecap="round"/>
<path d="M542.16 448.957C569.691 448.957 592.175 470.606 593.474 497.827L593.533 500.317V509.399C593.533 554.796 570.061 588.781 534.056 610.701C498.651 632.255 451.06 642.369 400.121 642.369C349.182 642.369 301.591 632.255 266.186 610.701C231.271 589.445 208.143 556.845 206.773 513.494L206.709 509.399V500.319C206.709 472.775 228.383 450.314 255.594 449.017L258.083 448.957H542.16ZM400.121 158.84C466.882 158.84 521.003 212.96 521.003 279.722C521.003 346.483 466.882 400.604 400.121 400.604C333.36 400.604 279.238 346.483 279.238 279.722C279.238 212.96 333.36 158.84 400.121 158.84Z" fill="#212121"/>
</svg>
