<?xml version="1.0" encoding="UTF-8"?>
<!-- Generated by Pixelmator Pro 3.6 -->
<svg width="800" height="800" viewBox="0 0 800 800" xmlns="http://www.w3.org/2000/svg">
    <path id="Path" fill="#558b2f" stroke="none" d="M 250 666.666626 L 633.333374 666.666626 L 733.333374 766.666626 L 733.333374 416.666656 C 733.333374 380 703.333313 350 666.666626 350 L 250 350 C 213.333344 350 183.333344 380 183.333344 416.666656 L 183.333344 600 C 183.333344 636.666687 213.333344 666.666626 250 666.666626 Z"/>
    <path id="path1" fill="#1b5e20" stroke="none" d="M 488.000031 586.666687 L 427.999969 586.666687 L 416.333344 621.666626 L 379.666656 621.666626 L 441.333344 455 L 473 455 L 534.666687 621.666626 L 498 621.666626 L 488.000031 586.666687 Z M 436.333344 560 L 477.999969 560 L 458 496.666656 L 436.333344 560 Z"/>
    <path id="path2" fill="#8bc34a" stroke="none" d="M 550 416.666656 L 166.666656 416.666656 L 66.666672 516.666626 L 66.666672 133.333313 C 66.666672 96.666687 96.666664 66.666687 133.333344 66.666687 L 550 66.666687 C 586.666687 66.666687 616.666626 96.666687 616.666626 133.333313 L 616.666626 350 C 616.666626 386.666656 586.666687 416.666656 550 416.666656 Z"/>
    <path id="path3" fill="#ffffff" stroke="none" d="M 423.333313 236.666626 C 423.333313 253.333313 419.999969 266.666687 415 278.333313 C 410 290 403.333344 300 393.333344 306.666656 L 421.666656 328.333344 L 400 348.333344 L 363.333344 320 C 360 320 355 321.666656 350 321.666656 C 340 321.666656 330 320 320 316.666687 C 311.666656 313.333344 303.333344 306.666656 296.666656 300 C 290 293.333344 285 283.333313 281.666656 273.333313 C 278.333344 263.333374 276.666656 251.666687 276.666656 238.333374 L 276.666656 231.666687 C 276.666656 218.333313 278.333344 206.666687 281.666656 196.666687 C 285 186.666687 290 176.666687 296.666656 170 C 303.333344 163.333313 310 156.666687 320 153.333313 C 328.333344 150 338.333344 148.333313 350 148.333313 C 360 148.333313 370 150 380 153.333313 C 388.333344 156.666687 396.666656 163.333313 403.333344 170 C 410 176.666687 415 186.666687 418.333344 196.666687 C 421.666656 206.666687 423.333313 218.333313 423.333313 231.666687 L 423.333313 236.666626 Z M 386.666656 228.333313 C 386.666656 210 383.333313 196.666687 376.666656 188.333313 C 370 178.333313 361.666656 175 350 175 C 338.333344 175 328.333344 180 323.333344 188.333313 C 316.666687 198.333313 313.333344 211.666626 313.333344 228.333313 L 313.333344 236.666626 C 313.333344 245 315 253.333313 316.666687 260 C 318.333344 266.666687 320 273.333313 323.333344 276.666687 C 326.666656 281.666687 330 285 335 286.666626 C 340 288.333344 345 290 350 290 C 361.666656 290 371.666656 285 376.666656 276.666687 C 383.333313 266.666687 386.666656 253.333313 386.666656 235 L 386.666656 228.333313 Z"/>
    <path id="Path-copy-3" fill="#2e7d32" stroke="none" d="M 182.137558 155.948242 C 117.294502 190.199585 33.103489 159.275146 33.103489 159.275146 C 33.103489 159.275146 55.019363 72.30304 119.862419 38.051758 C 184.705475 3.800415 268.896484 34.724854 268.896484 34.724854 C 268.896484 34.724854 246.980621 121.696899 182.137558 155.948242 Z"/>
    <path id="Path-copy-2" fill="#388e3c" stroke="none" d="M 211.775192 177.16449 C 137.258179 178.827881 76.925873 114.567078 76.925873 114.567078 C 76.925873 114.567078 135.042419 46.170959 208.085739 45.28595 C 281.129089 44.40094 342.935059 107.883362 342.935059 107.883362 C 342.935059 107.883362 286.292236 175.501038 211.775192 177.16449 Z"/>
    <path id="Path-copy" fill="#43a047" stroke="none" d="M 38.350319 72.236572 C -5.029119 132.848267 14.03937 218.905457 14.03937 218.905457 C 14.03937 218.905457 103.29348 209.457642 145.199234 149.62439 C 187.105042 89.791138 169.510193 2.955505 169.510193 2.955505 C 169.510193 2.955505 81.729782 11.624878 38.350319 72.236572 Z"/>
    <path id="Path-copy-6" fill="#2e7d32" stroke="none" d="M 573.833557 386.086182 C 553.938782 315.503082 601.827637 239.667053 601.827637 239.667053 C 601.827637 239.667053 682.271729 279.33075 702.166504 349.913818 C 722.061279 420.496918 674.172363 496.332916 674.172363 496.332916 C 674.172363 496.332916 593.728333 456.66925 573.833557 386.086182 Z"/>
    <path id="Path-copy-5" fill="#388e3c" stroke="none" d="M 631.93396 369.863434 C 645.93103 296.6539 721.413086 251.135742 721.413086 251.135742 C 721.413086 251.135742 776.104004 322.300781 761.654785 393.906158 C 747.205566 465.511566 672.175659 512.633789 672.175659 512.633789 C 672.175659 512.633789 617.936829 443.072968 631.93396 369.863434 Z"/>
    <path id="Path-copy-4" fill="#43a047" stroke="none" d="M 628.150269 337.670044 C 577.980835 282.546692 489.83844 283.148254 489.83844 283.148254 C 489.83844 283.148254 480.362915 372.399445 530.080139 425.918671 C 579.797424 479.437927 668.391968 480.44043 668.391968 480.44043 C 668.391968 480.44043 678.319641 392.793427 628.150269 337.670044 Z"/>
</svg>
